<?xml version="1.0" encoding="UTF-8" standalone="no"?>
<!-- Created with Inkscape (http://www.inkscape.org/) -->
<svg xmlns:dc="http://purl.org/dc/elements/1.1/" xmlns:cc="http://creativecommons.org/ns#" xmlns:rdf="http://www.w3.org/1999/02/22-rdf-syntax-ns#" xmlns:svg="http://www.w3.org/2000/svg" xmlns="http://www.w3.org/2000/svg" xmlns:sodipodi="http://sodipodi.sourceforge.net/DTD/sodipodi-0.dtd" xmlns:inkscape="http://www.inkscape.org/namespaces/inkscape" width="59.288246mm" height="156.79028mm" viewBox="0 0 210.07646 555.55612" id="svg4307" version="1.1" inkscape:version="0.91 r13725" sodipodi:docname="Rod.svg">
  <defs id="defs4309"/>
  <sodipodi:namedview id="base" pagecolor="#ffffff" bordercolor="#666666" borderopacity="1.0" inkscape:pageopacity="0.0" inkscape:pageshadow="2" inkscape:zoom="11.2" inkscape:cx="79.694514" inkscape:cy="96.528971" inkscape:document-units="px" inkscape:current-layer="layer1" showgrid="false" fit-margin-top="5" fit-margin-left="5" fit-margin-right="5" fit-margin-bottom="5" inkscape:window-width="1858" inkscape:window-height="1057" inkscape:window-x="54" inkscape:window-y="-8" inkscape:window-maximized="1"/>
  <metadata id="metadata4312">
    <rdf:RDF>
      <cc:Work rdf:about="">
        <dc:format>image/svg+xml</dc:format>
        <dc:type rdf:resource="http://purl.org/dc/dcmitype/StillImage"/>
        <dc:title/>
      </cc:Work>
    </rdf:RDF>
  </metadata>
  <g inkscape:label="Layer 1" inkscape:groupmode="layer" id="layer1" transform="translate(359.32394,85.41585)">
    <path style="fill:#000000;fill-opacity:1;fill-rule:nonzero;stroke:none" d="m -284.24538,-67.520744 4.37009,95.541545 c -100.59945,12.150486 -68.23818,66.608038 2.86026,87.543349 0.35074,17.1719 1.63407,36.78464 2.15995,58.55928 -63.17037,26.21479 -59.59028,58.58165 2.99854,85.10176 0.43823,18.67659 1.97448,37.03661 2.50038,54.73955 -37.33375,13.18908 -27.50912,41.33012 1.66602,52.13476 0.35073,9.73665 0.70016,18.07476 1.05078,26.30664 -33.56176,12.66885 -7.39782,27.77955 0.38867,29.70118 -0.22463,21.30407 -0.32947,30.25045 0.0625,30.3164 5.32664,-0.90156 4.49826,-31.9765 5.28711,-51.0957 -1.63222,0.48322 -3.70065,1.21846 -5.28516,1.56836 0.0503,4.57295 0.0154,10.968 -0.0566,17.98828 -9.7023,-4.92972 -10.9772,-12.12672 -9.28851,-15.50028 3.9068,-7.80473 28.61798,-6.59722 31.85687,-23.50753 1.99997,-10.44187 -4.12017,-16.75089 -12.27148,-21.88477 -0.0879,4.95688 -0.12679,6.95072 -0.30218,11.64203 8.85491,7.45697 0.6575,15.82718 -4.55524,18.48492 0.61353,-16.19823 0.7458,-40.98801 1.35937,-61.96484 -3.24305,0.66787 -6.8237,1.906 -9.71602,3.08721 0.26294,5.6649 0.85531,17.31547 1.03047,22.80342 -7.83587,-3.33049 -12.81764,-8.40905 -12.63672,-16.03125 0.51162,-21.55436 52.51305,-12.75552 60.10325,-51.51339 2.6558,-13.56129 -15.64649,-27.80552 -31.33567,-36.03739 -0.17516,5.84197 -0.26221,10.34944 -0.4375,16.1914 26.38022,12.83316 15.0608,35.40466 -6.31445,44.03516 1.05179,-36.55659 2.10446,-74.17576 3.15625,-112.67969 -5.78488,2.56691 -12.49359,4.95848 -17.84023,7.52539 0.35074,11.50694 1.11934,22.9874 1.46992,34.75986 -14.37443,-7.25822 -24.73819,-14.04856 -21.58281,-25.73252 7.80086,-28.41204 99.09261,-28.07181 90.85352,-80.20703 -2.6295,-16.90632 -25.62905,-25.47599 -45.35017,-31.49497 l -0.79239,19.49693 c 35.13416,14.43175 16.4835,32.66662 -5.79492,41.48632 1.0518,-42.39864 2.81924,-83.737288 3.34515,-103.829788 -8.01543,-0.99432 -20.14851,-1.182736 -27.3341,0.140974 0.0879,5.04533 0.81734,18.85453 1.16797,35.05274 -100.06065,-43.68961 47.66698,-67.180987 67.89173,-24.387801 14.14236,3.5582 55.96461,-2.32022 38.32965,-15.06796 -21.58528,-15.90173 -53.06038,-27.221233 -79.41853,-27.605743 l 3.30126,-95.741862 z m 84.56501,113.915179 c 4.02307,0.037 12.22969,4.64953 11.35742,6.79101 -5.80406,4.33816 -12.56751,-1.11825 -12.7871,-6.50586 0.36526,-0.202 0.85496,-0.29044 1.42968,-0.28515 z" id="path4272-7" inkscape:connector-curvature="0" sodipodi:nodetypes="cccccccccccccssccccccsscccccccccccccccccccsccs"/>
  </g>
</svg>